<?xml version="1.0" standalone="no"?>
<!DOCTYPE svg PUBLIC "-//W3C//DTD SVG 20010904//EN"
 "http://www.w3.org/TR/2001/REC-SVG-20010904/DTD/svg10.dtd">
<svg version="1.0" xmlns="http://www.w3.org/2000/svg"
 width="260.000000pt" height="260.000000pt" viewBox="0 0 260.000000 260.000000"
 preserveAspectRatio="xMidYMid meet">
<metadata>
Created by potrace 1.14, written by Peter Selinger 2001-2017
</metadata>
<g transform="translate(0.000000,260.000000) scale(0.100000,-0.100000)"
fill="#000000" stroke="none">
<path d="M1115 2411 c-107 -24 -164 -44 -259 -94 -94 -49 -201 -132 -275 -214
-101 -112 -202 -318 -217 -443 -3 -30 -13 -65 -20 -77 -12 -19 -14 -129 -14
-653 1 -624 1 -630 21 -641 12 -6 23 -8 26 -6 2 3 14 -4 25 -15 16 -16 22 -17
34 -7 12 10 17 10 23 1 4 -7 17 -14 28 -16 16 -4 20 0 16 15 -4 14 -14 19 -39
19 -19 0 -34 2 -34 5 0 13 54 55 70 55 18 0 20 7 20 64 0 42 -4 66 -12 70 -10
5 -10 7 0 12 9 4 12 111 12 482 0 268 4 489 9 506 6 17 14 70 20 119 6 48 17
104 26 125 69 161 142 265 243 345 91 73 140 99 257 138 92 31 110 33 225 33
101 0 139 -5 200 -23 69 -22 196 -79 223 -101 7 -6 37 -30 67 -54 159 -127
271 -355 271 -551 -1 -33 -3 -320 -7 -639 -3 -318 -3 -584 0 -592 5 -13 18 -9
184 57 l23 9 -4 622 c-4 687 -4 698 -69 863 -38 97 -139 253 -205 316 -60 58
-174 149 -186 149 -5 0 -21 9 -37 20 -43 30 -176 79 -275 100 -113 25 -261 25
-370 1z m1088 -966 c0 -6 -7 -11 -16 -13 -12 -3 -15 1 -11 13 7 17 25 17 27 0z
m-1747 -1073 c-9 -9 -37 8 -31 18 5 8 11 7 21 -1 8 -6 12 -14 10 -17z m-51
-12 c3 -5 -1 -10 -9 -10 -9 0 -16 5 -16 10 0 6 4 10 9 10 6 0 13 -4 16 -10z
m30 -10 c3 -5 1 -10 -4 -10 -6 0 -11 5 -11 10 0 6 2 10 4 10 3 0 8 -4 11 -10z"/>
<path d="M1000 2118 c-41 -12 -78 -26 -82 -32 -4 -6 -8 -89 -8 -183 l0 -173
-113 0 -113 0 -36 -62 c-40 -71 -68 -124 -68 -133 0 -3 74 -5 165 -5 l165 0 0
-140 0 -140 -162 -2 -162 -3 3 -47 c1 -25 6 -68 9 -95 l7 -48 153 -3 152 -3 0
-149 0 -150 -172 -2 -173 -3 0 -95 0 -95 173 -3 172 -2 0 -139 c0 -77 3 -146
6 -155 6 -15 181 -76 217 -76 15 0 17 22 19 183 l3 182 128 3 127 3 0 -173 c0
-95 4 -179 9 -187 8 -13 15 -13 48 1 70 29 118 47 143 54 48 13 50 18 50 165
l0 139 160 0 160 0 0 100 0 100 -160 0 -160 0 0 150 0 150 160 0 160 0 0 100
0 100 -160 0 -160 0 0 140 0 140 155 0 c122 0 157 3 161 14 3 7 -12 52 -33 99
l-38 87 -122 0 -123 0 0 164 c0 119 -3 166 -12 173 -20 14 -207 56 -223 49
-13 -4 -15 -37 -15 -196 l0 -191 -127 3 -128 3 -3 203 -2 202 -38 -1 c-20 0
-71 -10 -112 -21z m410 -728 l0 -140 -124 0 c-104 0 -125 3 -130 16 -3 9 -6
72 -6 140 l0 124 130 0 130 0 0 -140z m0 -490 l0 -151 -127 3 -128 3 -3 125
c-4 184 -15 170 133 170 l125 0 0 -150z"/>
</g>
</svg>
