<?xml version="1.0" standalone="no"?>
<!DOCTYPE svg PUBLIC "-//W3C//DTD SVG 20010904//EN"
 "http://www.w3.org/TR/2001/REC-SVG-20010904/DTD/svg10.dtd">
<svg version="1.0" xmlns="http://www.w3.org/2000/svg"
 width="700.000000pt" height="700.000000pt" viewBox="0 0 700.000000 700.000000"
 preserveAspectRatio="xMidYMid meet">
<metadata>
Created by potrace 1.14, written by Peter Selinger 2001-2017
</metadata>
<g transform="translate(0.000000,700.000000) scale(0.100000,-0.100000)"
fill="#000000" stroke="none">
<path d="M3225 6910 c-267 -90 -1470 -488 -2318 -768 l-478 -157 4 -1315 c2
-723 7 -1335 10 -1358 6 -44 13 -88 23 -152 127 -794 602 -1540 1391 -2186
452 -371 1065 -740 1562 -940 l85 -35 121 52 c209 89 524 249 690 350 17 10
44 26 60 35 226 125 725 486 920 665 22 20 54 49 70 63 17 15 75 71 130 125
433 425 739 887 913 1376 27 76 81 260 88 300 3 16 9 46 14 65 5 19 11 51 14
70 3 19 8 46 11 60 3 14 7 54 11 90 3 36 8 76 12 90 3 14 7 615 9 1335 l4
1311 -498 164 c-495 163 -1649 545 -2253 745 -174 58 -320 104 -325 104 -6 -1
-127 -41 -270 -89z"/>
</g>
</svg>
