<svg xmlns="http://www.w3.org/2000/svg" xmlns:xlink="http://www.w3.org/1999/xlink" width="2424" height="289" viewBox="0 0 2424 289"><defs><linearGradient id="a" x1="0.5" x2="0.5" y2="1" gradientUnits="objectBoundingBox"><stop offset="0" stop-color="#2d2937"/><stop offset="1" stop-color="#413c4b"/></linearGradient><clipPath id="l"><rect width="2424" height="289"/></clipPath></defs><g id="k" clip-path="url(#l)"><path d="M368.836,14.176a7.974,7.974,0,0,0-7.784-7.828c-17.512-.827-40.3-1.11-58.371-.565a4.572,4.572,0,0,0-4.735,5.306c2.046,22.374,3.748,65.327,3.97,100.572a1.641,1.641,0,0,1-3.13.706C281.336,75.609,261.317,37.5,244.929,9.394a8.492,8.492,0,0,0-7.505-3.914c-16.95,0-42.585.565-58.411,1.11-4.173.282-7.424,3.087-7.784,7.283-5.778,65.508-4.912,139.975,1.666,211.072a7.854,7.854,0,0,0,7.5,7.545c19.057,1.271,39.8,1.513,59.758,1.251,3.353-.06,5.555-2.239,5.277-5.588-2.406-21.991-4.254-64.9-4.715-98.232a1.646,1.646,0,0,1,3.13-.746c17.411,36.194,37.714,74.809,53.519,100.936,1.646,2.724,4.451,3.632,7.5,3.632,16.408.565,41.745.283,57.854-.827a7.854,7.854,0,0,0,7.5-7.546c4.457-70.451,4.457-142.7-1.383-211.192Z" transform="translate(682.665 24.219)" fill="url(#a)"/><path d="M434.085,16.3c-.263-4.5-3.17-7.586-7.424-7.868-31.312-2.845-51.331-2.986-82.806-3.248-31.474.242-51.493.4-82.806,3.248-4.234.282-7.161,3.369-7.424,7.868a456.631,456.631,0,0,0,.724,53.908c.36,5.044,3.388,8.716,9.308,8.555,13.137-.383,24.931-.565,37.511-.646a3.542,3.542,0,0,1,3.55,3.571c-.1,17.189-.2,37.546-.2,56.208,0,33.612-.04,72.751.324,88.952a8.234,8.234,0,0,0,7.784,8.07c7.46.383,19.356.888,30.852.888s23.387-.5,30.852-.888a8.226,8.226,0,0,0,7.784-8.09c.36-16.886.577-57.721.577-88.367,0-17.492-.137-38.615-.319-56.692a3.517,3.517,0,0,1,3.55-3.571c12.838.1,24.977.283,38.716.545,6.077.121,8.366-2.683,8.665-7.747a541.539,541.539,0,0,0,.744-54.695h.041Z" transform="translate(1031.279 23.02)" fill="url(#a)"/><path d="M536.432,11.252c-14.788-4.66-38.777-6.94-62.711-6.94s-47.918,2.28-62.706,6.94c-32.5,10.249-37.749,51.406-37.749,123.129,0,36.618,2.628,73.7,5.733,92.7,1.145,6.9,4.4,10.793,10.777,11.4,12.514,1.191,40.479,1.17,54.963.383,5.515-.3,7.222-4.358,6.639-9.139-1.205-10.027-2.446-24.231-3.449-40.028a2.685,2.685,0,0,1,2.644-2.865c7.2-.041,14.848,0,23.23.06,8.467-.06,16.028-.06,23.149.02a2.7,2.7,0,0,1,2.648,2.865c-1,15.757-2.228,29.94-3.469,39.947-.562,4.781,1.124,8.857,6.639,9.139,14.484.787,42.423.807,54.963-.383,6.381-.605,9.647-4.5,10.772-11.4,3.13-18.985,5.738-56.067,5.738-92.7,0-71.7-5.257-112.88-37.754-123.129h-.055Zm-62.67,113.626c-9.506.081-17.649.141-25.392.3a2.659,2.659,0,0,1-2.709-2.684c.02-8.312.218-16.079.623-22.838,1.22-21.043,4.932-26.873,27.458-26.873s26.238,5.851,27.464,26.873c.4,6.779.582,14.526.623,22.838a2.672,2.672,0,0,1-2.709,2.684c-7.723-.162-15.866-.222-25.337-.3h-.02Z" transform="translate(1519.447 19.468)" fill="url(#a)"/><path d="M495.872,169.472c-16.049.827-56.791,1.412-71.295,1.412h-9.546c-4.335,0-4.917-1.452-5.2-5.225-.243-3.692-.481-8.433-.684-14.466a3.745,3.745,0,0,1,3.793-3.893c16.606.262,45.654.585,57.789-.1,3.813-.222,6.923-2.643,7.262-6.758.441-5.185.785-12.166.785-20.175a168.061,168.061,0,0,0-.785-20.175c-.481-3.853-2.725-6.416-7.262-6.759-13.238-.989-41.5-.565-57.789-.2a3.738,3.738,0,0,1-3.813-3.893c.2-6.254.461-11.177.7-14.99.3-3.773.861-5.225,5.216-5.225h9.526c14.5,0,55.246.605,71.295,1.412a5.931,5.931,0,0,0,6.214-5.709c.684-16.06.744-35.065.061-50.8a7.537,7.537,0,0,0-7.2-7.2c-24.43-1.009-40.96-1.372-68.1-1.473-30.933-.121-61.465,1.291-74.622,2.179-9.268.585-13.881,5.225-14.464,14.546-1.145,19.55-2.73,56.248-2.77,97.244v1.493c.041,41,1.626,77.694,2.77,97.244.582,9.321,5.2,13.961,14.464,14.547,13.157.887,43.69,2.3,74.622,2.179,27.119-.1,43.669-.464,68.1-1.473a7.522,7.522,0,0,0,7.2-7.2c.684-15.737.643-34.741-.061-50.8a5.931,5.931,0,0,0-6.214-5.71v-.02Z" transform="translate(1363.882 23.238)" fill="url(#a)"/><path d="M204.455,45.378c-5.5-23.847-15.606-35.185-39.919-37.526C144,5.815,118.32,4.947,90.857,4.947c-31.534,0-48.3,0-74.04,1.755C7.55,7.288,2.936,11.928,2.354,21.249,1.211,41.041.91,79.716.91,121.317s.281,80.277,1.444,100.069c.582,9.321,5.2,13.961,14.463,14.546,26.619,1.755,44.533,2.038,76.929,1.755,25.737-.283,53.72-2.037,74.261-4.358,24.292-2.905,34.141-14.546,39.056-38.7,4.914-24.432,6.078-48.582,6.078-73.3a342.877,342.877,0,0,0-8.686-75.919v-.041ZM133.344,165.1c-1.625,6.9-5.938,9.583-11.013,10.39-6.74,1.069-16.088,1.876-33.139,1.876H79.664c-4.333,0-4.915-1.452-5.2-5.225-.582-8.735-1.164-27.357-1.164-50.619s.582-41.884,1.164-50.619c.281-3.773.862-5.225,5.2-5.225h9.528c17.071,0,26.418.827,33.139,1.876,5.055.787,9.368,3.49,11.013,10.39,1.625,6.9,3.591,22.071,3.591,43.6s-1.966,36.7-3.591,43.6V165.1Z" transform="translate(6.09 22.052)" fill="url(#a)"/><path d="M389.473,18.62c.5,16.886-.724,37.385-4.092,54.594-.866,4.378-3.753,6.012-8.366,5.265-33.181-5.286-61.7-8.7-85.333-9.018-3.793-.061-5.074.544-5.054,3.772v8.03A4.113,4.113,0,0,0,290,85.5c27.119,7.889,55.727,15.817,86.721,28.971,7.7,3.268,11.192,7.788,12.757,16.3,5.2,28.467,5.2,52.7.481,83.787-2.026,13.356-7.926,19.469-21.726,21.164-41.325,5.064-118.514,1.17-144.93-2.7-5.616-.827-8.346-4.156-8.807-10.673-1.023-14.889,1.023-33.632,4.472-48.279a7.286,7.286,0,0,1,8.305-5.568c34.741,5.669,55.464,8.917,91.41,7.989,3.834-.1,4.614-.989,4.776-4.539a31.035,31.035,0,0,0,0-6.96,4.288,4.288,0,0,0-3.368-3.954c-32.741-7.747-62.726-18.8-90.473-30.747-7.581-3.268-11.369-8.655-12.676-17.592-3.829-26.228-4.735-55.946-1.383-82.133,1.742-13.578,5.434-18.864,19.477-20.9,50.911-7.445,109.945-4.862,147.178.222,5.257.706,7.12,3.611,7.282,8.736h-.02Z" transform="translate(870.058 22.337)" fill="url(#a)"/><path d="M469.817,138c4.892-19.973,5.794-82.213-.846-106.262C463.4,11.483,454.609,9.707,433.769,7.71c-17.614-1.755-39.638-2.481-63.227-2.481-27.043,0-41.446,0-63.531,1.493-7.946.5-11.916,4.5-12.418,12.488-.982,16.967-1.241,50.155-1.241,85.845h.061c-.041,10.592-.061,21.567-.061,32,0,32.361-.02,74.446.3,90.041a7.8,7.8,0,0,0,7.2,7.768c6.882.363,17.872.847,28.507.847s22.764-.484,29.646-.847a7.9,7.9,0,0,0,7.2-7.788c.623-13.739.643-31.836-.121-57.882-.061-2.239,2.026-2.36,2.988-.4,10.534,21.366,19.66,38.434,30.214,57.58,2.026,3.672,6.239,8.393,11.775,8.7,6.821.363,14.783.888,25.858.888a299.244,299.244,0,0,0,29.945-1.533c4.735-.444,6.822-4.3,4.654-8.534-11.693-22.8-23.245-42.65-34.943-62.2a1.5,1.5,0,0,1,1.1-2.26c5.616-.665,8.928-.908,13.177-1.755,11.6-2.259,15.35-6.86,18.961-21.648V138ZM371.043,57.28h8.2c29.869,0,30.831,2.885,30.852,25.381-.02,18.42-1.084,25.037-17.072,26.49-4.011.363-13.3.242-23.108-.02a4.061,4.061,0,0,1-3.935-4.1c.081-23.444.263-38.716.6-43.255.243-3.248.765-4.5,4.477-4.5Z" transform="translate(1194.654 23.195)" fill="url(#a)"/><path d="M394.091,14.225a7.905,7.905,0,0,0-7.546-7.586C367.331,5.347,350.422,5.105,330.3,5.388a5.245,5.245,0,0,0-5.216,5.689c1.864,25.36.582,85.36-2.005,147.278a1.659,1.659,0,0,1-3.292.222c-8.346-48.663-20.9-112.012-33.358-146.593a6.144,6.144,0,0,0-5.358-4.075c-5.474-.4-20.06-1.009-32.335-1.009s-25.494.585-30.649.989a6.17,6.17,0,0,0-5.378,4.237c-11.531,35.246-24.329,96.417-32.335,145.18a1.653,1.653,0,0,1-3.287-.222C174.418,90.91,173.111,34.54,174.8,11.178a5.358,5.358,0,0,0-5.318-5.81c-20.08-.282-36.969-.02-56.148,1.251a7.9,7.9,0,0,0-7.541,7.586c-6.68,72.126,5.515,177.782,11.734,213.291a7.813,7.813,0,0,0,7.7,6.476c29.991,1.17,66.96,1.634,96.748,1.251a7.988,7.988,0,0,0,7.8-7.061c4.993-42.469,10.67-91.837,17.634-132.389a1.651,1.651,0,0,1,3.251-.02c7.981,40.733,13.3,90.849,18.976,132.571a7.921,7.921,0,0,0,7.784,6.88c31.875.242,68.1-.1,97.3-1.191a7.815,7.815,0,0,0,7.647-6.294c7.08-36.073,18.474-141.226,11.774-213.453h-.041l-.02-.04Z" transform="translate(424.463 23.342)" fill="url(#a)"/><path d="M697.682,13.913c-.942-5.508-4.918-7.1-8.807-7.324-17.892-.948-66-1.594-95.766-1.211a7.976,7.976,0,0,0-7.8,7.061c-4.993,42.489-10.67,91.9-17.649,132.45a1.643,1.643,0,0,1-3.231.04c-7.986-40.754-13.3-90.889-18.976-132.631a7.919,7.919,0,0,0-7.763-6.88c-31.875-.242-68.125.1-97.33,1.19a7.805,7.805,0,0,0-7.642,6.295c-7.06,36.073-18.475,141.226-11.775,213.453a7.9,7.9,0,0,0,7.541,7.586c19.219,1.291,36.129,1.533,56.269,1.251a5.253,5.253,0,0,0,5.211-5.689c-1.864-25.381-.578-85.462,2.011-147.44a1.645,1.645,0,0,1,3.266-.222c8.366,48.682,20.926,112.133,33.379,146.754a6.181,6.181,0,0,0,5.358,4.075c5.474.4,20.06,1.009,32.335,1.009s25.5-.585,30.634-.989a6.135,6.135,0,0,0,5.373-4.237c11.557-35.286,24.374-96.558,32.356-145.361a1.648,1.648,0,0,1,3.271.2c2.669,66.255,3.97,122.7,2.284,146.068a5.372,5.372,0,0,0,5.317,5.81c20.1.283,36.989.02,56.147-1.251a7.9,7.9,0,0,0,7.541-7.586c6.68-72.126-5.535-176.955-11.572-212.484h.02v.061Z" transform="translate(1704.942 23.35)" fill="url(#a)"/><path d="M283.181,60.353c7.743,5.1,11.775,12.731,12.818,22.334,2.868,33.995,2.367,72.267,0,112.88-.7,9.986-4.273,15.918-12.818,22.333-28.064,21.466-60.961,39.987-97.209,56.45-10.471,4.782-16.168,4.338-25.636,0A583.272,583.272,0,0,1,63.126,217.9c-8.425-6.516-12.1-12-12.818-22.333-2.106-36.013-1.906-73.78,0-112.88.5-9.825,5.2-16.786,12.818-22.334,28.966-21,61.6-39.684,97.209-56.45a28.036,28.036,0,0,1,25.636,0A767.417,767.417,0,0,1,283.181,60.353Zm-21.722,54.874a590.688,590.688,0,0,0-61.122,34.56h-.02a9.968,9.968,0,0,0-4.493,7.828c-1.083,21.587-.943,44.547,0,68.414a4.376,4.376,0,0,0,6.258,3.793c21.986-10.693,42.667-22.738,61.483-36.739a9.984,9.984,0,0,0,3.972-7.4,527.471,527.471,0,0,0,.2-66.8,4.374,4.374,0,0,0-6.279-3.651Z" transform="translate(200.739 5.199)" fill-rule="evenodd" fill="url(#a)"/></g></svg>