<svg width="476" height="57" viewBox="0 0 476 57" fill="none" xmlns="http://www.w3.org/2000/svg">
<g filter="url(#filter0_di_201_2307)">
<path d="M206.25 6.39671C206.194 5.5123 205.592 4.90676 204.713 4.85099C201.255 4.68766 196.755 4.63188 193.186 4.73944C192.584 4.73944 192.196 5.18165 192.251 5.78719C192.655 10.2052 192.992 18.6867 193.036 25.6464C193.036 25.993 192.568 26.1046 192.418 25.7859C188.972 18.5274 185.019 11.002 181.782 5.45255C181.481 4.93863 180.903 4.67969 180.301 4.67969C176.954 4.67969 171.892 4.79123 168.767 4.8988C167.943 4.95457 167.301 5.50832 167.23 6.33695C166.089 19.2724 166.259 33.9766 167.558 48.0155C167.614 48.8441 168.216 49.4537 169.04 49.5054C172.803 49.7564 176.898 49.8042 180.84 49.7524C181.501 49.7405 181.937 49.3102 181.881 48.6489C181.406 44.3066 181.042 35.833 180.951 29.2518C180.947 28.9012 181.418 28.7897 181.569 29.1044C185.007 36.2513 189.015 43.8763 192.136 49.0354C192.461 49.5732 193.016 49.7524 193.618 49.7524C196.858 49.864 201.861 49.8082 205.041 49.5891C205.865 49.5333 206.471 48.9278 206.523 48.0992C207.402 34.1877 207.402 19.9217 206.25 6.39671Z" fill="#3D3748"/>
<path d="M206.25 6.39671C206.194 5.5123 205.592 4.90676 204.713 4.85099C201.255 4.68766 196.755 4.63188 193.186 4.73944C192.584 4.73944 192.196 5.18165 192.251 5.78719C192.655 10.2052 192.992 18.6867 193.036 25.6464C193.036 25.993 192.568 26.1046 192.418 25.7859C188.972 18.5274 185.019 11.002 181.782 5.45255C181.481 4.93863 180.903 4.67969 180.301 4.67969C176.954 4.67969 171.892 4.79123 168.767 4.8988C167.943 4.95457 167.301 5.50832 167.23 6.33695C166.089 19.2724 166.259 33.9766 167.558 48.0155C167.614 48.8441 168.216 49.4537 169.04 49.5054C172.803 49.7564 176.898 49.8042 180.84 49.7524C181.501 49.7405 181.937 49.3102 181.881 48.6489C181.406 44.3066 181.042 35.833 180.951 29.2518C180.947 28.9012 181.418 28.7897 181.569 29.1044C185.007 36.2513 189.015 43.8763 192.136 49.0354C192.461 49.5732 193.016 49.7524 193.618 49.7524C196.858 49.864 201.861 49.8082 205.041 49.5891C205.865 49.5333 206.471 48.9278 206.523 48.0992C207.402 34.1877 207.402 19.9217 206.25 6.39671Z" fill="url(#paint0_linear_201_2307)" fill-opacity="0.24"/>
<path d="M287.97 6.57935C287.919 5.69097 287.344 5.08144 286.505 5.02567C280.321 4.46395 276.368 4.43607 270.154 4.38428C263.939 4.43208 259.986 4.46395 253.802 5.02567C252.967 5.08144 252.388 5.69097 252.337 6.57935C252.182 10.0732 252.214 13.6825 252.479 17.2241C252.551 18.22 253.149 18.9451 254.317 18.9132C256.912 18.8375 259.241 18.8017 261.724 18.7857C262.113 18.7857 262.43 19.1005 262.426 19.4909C262.406 22.8851 262.386 26.9047 262.386 30.5897C262.386 37.2268 262.378 44.9553 262.449 48.1543C262.469 49.0109 263.139 49.704 263.986 49.7479C265.46 49.8236 267.809 49.9231 270.078 49.9231C272.348 49.9231 274.697 49.8236 276.17 49.7479C277.022 49.704 277.691 49.0069 277.707 48.1504C277.778 44.8159 277.822 36.7527 277.822 30.7013C277.822 27.2473 277.794 23.0763 277.759 19.5068C277.759 19.1124 278.072 18.7937 278.46 18.8017C280.995 18.8216 283.391 18.8574 286.105 18.9092C287.305 18.9331 287.756 18.3794 287.816 17.3794C288.026 13.8817 288.117 10.0732 287.962 6.57935H287.97Z" fill="#3D3748"/>
<path d="M287.97 6.57935C287.919 5.69097 287.344 5.08144 286.505 5.02567C280.321 4.46395 276.368 4.43607 270.154 4.38428C263.939 4.43208 259.986 4.46395 253.802 5.02567C252.967 5.08144 252.388 5.69097 252.337 6.57935C252.182 10.0732 252.214 13.6825 252.479 17.2241C252.551 18.22 253.149 18.9451 254.317 18.9132C256.912 18.8375 259.241 18.8017 261.724 18.7857C262.113 18.7857 262.43 19.1005 262.426 19.4909C262.406 22.8851 262.386 26.9047 262.386 30.5897C262.386 37.2268 262.378 44.9553 262.449 48.1543C262.469 49.0109 263.139 49.704 263.986 49.7479C265.46 49.8236 267.809 49.9231 270.078 49.9231C272.348 49.9231 274.697 49.8236 276.17 49.7479C277.022 49.704 277.691 49.0069 277.707 48.1504C277.778 44.8159 277.822 36.7527 277.822 30.7013C277.822 27.2473 277.794 23.0763 277.759 19.5068C277.759 19.1124 278.072 18.7937 278.46 18.8017C280.995 18.8216 283.391 18.8574 286.105 18.9092C287.305 18.9331 287.756 18.3794 287.816 17.3794C288.026 13.8817 288.117 10.0732 287.962 6.57935H287.97Z" fill="url(#paint1_linear_201_2307)" fill-opacity="0.24"/>
<path d="M404.574 4.88166C401.655 3.9614 396.917 3.51123 392.192 3.51123C387.466 3.51123 382.729 3.9614 379.81 4.88166C373.393 6.90543 372.355 15.0324 372.355 29.1948C372.355 36.4254 372.874 43.7477 373.488 47.5004C373.714 48.8629 374.356 49.6317 375.615 49.7512C378.087 49.9863 383.608 49.9823 386.468 49.8269C387.558 49.7672 387.894 48.9664 387.779 48.0223C387.542 46.0423 387.296 43.2377 387.098 40.1184C387.078 39.8156 387.316 39.5567 387.621 39.5527C389.043 39.5447 390.552 39.5527 392.208 39.5647C393.879 39.5527 395.373 39.5527 396.779 39.5686C397.08 39.5686 397.318 39.8316 397.302 40.1343C397.104 43.2457 396.862 46.0463 396.616 48.0223C396.506 48.9664 396.838 49.7712 397.928 49.8269C400.787 49.9823 406.305 49.9863 408.781 49.7512C410.04 49.6317 410.686 48.8629 410.908 47.5004C411.526 43.7516 412.041 36.4294 412.041 29.1948C412.041 15.0364 411.003 6.90543 404.586 4.88166H404.578H404.574ZM392.2 27.3184C390.322 27.3344 388.714 27.3463 387.185 27.3782C386.892 27.3822 386.647 27.1471 386.651 26.8484C386.654 25.207 386.694 23.6733 386.773 22.3387C387.015 18.1836 387.748 17.0323 392.196 17.0323C396.644 17.0323 397.377 18.1876 397.619 22.3387C397.698 23.6772 397.733 25.207 397.741 26.8484C397.741 27.1432 397.5 27.3862 397.207 27.3782C395.682 27.3463 394.073 27.3344 392.204 27.3184H392.2Z" fill="#3D3748"/>
<path d="M404.574 4.88166C401.655 3.9614 396.917 3.51123 392.192 3.51123C387.466 3.51123 382.729 3.9614 379.81 4.88166C373.393 6.90543 372.355 15.0324 372.355 29.1948C372.355 36.4254 372.874 43.7477 373.488 47.5004C373.714 48.8629 374.356 49.6317 375.615 49.7512C378.087 49.9863 383.608 49.9823 386.468 49.8269C387.558 49.7672 387.894 48.9664 387.779 48.0223C387.542 46.0423 387.296 43.2377 387.098 40.1184C387.078 39.8156 387.316 39.5567 387.621 39.5527C389.043 39.5447 390.552 39.5527 392.208 39.5647C393.879 39.5527 395.373 39.5527 396.779 39.5686C397.08 39.5686 397.318 39.8316 397.302 40.1343C397.104 43.2457 396.862 46.0463 396.616 48.0223C396.506 48.9664 396.838 49.7712 397.928 49.8269C400.787 49.9823 406.305 49.9863 408.781 49.7512C410.04 49.6317 410.686 48.8629 410.908 47.5004C411.526 43.7516 412.041 36.4294 412.041 29.1948C412.041 15.0364 411.003 6.90543 404.586 4.88166H404.578H404.574ZM392.2 27.3184C390.322 27.3344 388.714 27.3463 387.185 27.3782C386.892 27.3822 386.647 27.1471 386.651 26.8484C386.654 25.207 386.694 23.6733 386.773 22.3387C387.015 18.1836 387.748 17.0323 392.196 17.0323C396.644 17.0323 397.377 18.1876 397.619 22.3387C397.698 23.6772 397.733 25.207 397.741 26.8484C397.741 27.1432 397.5 27.3862 397.207 27.3782C395.682 27.3463 394.073 27.3344 392.204 27.3184H392.2Z" fill="url(#paint2_linear_201_2307)" fill-opacity="0.24"/>
<path d="M365.847 36.8681C362.678 37.0314 354.634 37.1469 351.77 37.1469H349.884C349.029 37.1469 348.914 36.8601 348.858 36.1151C348.811 35.3861 348.763 34.4499 348.724 33.2588C348.712 32.8325 349.049 32.4819 349.472 32.4899C352.752 32.5417 358.488 32.6054 360.884 32.47C361.637 32.4261 362.251 31.9481 362.318 31.1354C362.405 30.1115 362.472 28.7332 362.472 27.1516C362.472 25.57 362.457 24.2474 362.318 23.1678C362.223 22.4069 361.779 21.9009 360.884 21.8332C358.27 21.638 352.689 21.7217 349.472 21.7934C349.049 21.8053 348.704 21.4508 348.72 21.0245C348.759 19.7895 348.811 18.8175 348.858 18.0645C348.918 17.3196 349.029 17.0327 349.888 17.0327H351.77C354.634 17.0327 362.678 17.1522 365.847 17.3116C366.497 17.3474 367.047 16.8375 367.075 16.1842C367.21 13.0131 367.222 9.26032 367.087 6.15295C367.051 5.3801 366.433 4.76261 365.665 4.73074C360.84 4.53155 357.577 4.45984 352.217 4.43992C346.109 4.41602 340.081 4.69488 337.482 4.87017C335.652 4.9857 334.741 5.90197 334.626 7.74249C334.401 11.6028 334.088 18.8493 334.08 26.9444V27.2392C334.088 35.3343 334.401 42.5809 334.626 46.4412C334.741 48.2817 335.652 49.1979 337.482 49.3135C340.081 49.4888 346.109 49.7676 352.217 49.7437C357.573 49.7238 360.84 49.6521 365.665 49.4529C366.433 49.421 367.055 48.8036 367.087 48.0307C367.222 44.9233 367.214 41.1706 367.075 37.9995C367.047 37.3461 366.497 36.8362 365.847 36.8721V36.8681Z" fill="#3D3748"/>
<path d="M365.847 36.8681C362.678 37.0314 354.634 37.1469 351.77 37.1469H349.884C349.029 37.1469 348.914 36.8601 348.858 36.1151C348.811 35.3861 348.763 34.4499 348.724 33.2588C348.712 32.8325 349.049 32.4819 349.472 32.4899C352.752 32.5417 358.488 32.6054 360.884 32.47C361.637 32.4261 362.251 31.9481 362.318 31.1354C362.405 30.1115 362.472 28.7332 362.472 27.1516C362.472 25.57 362.457 24.2474 362.318 23.1678C362.223 22.4069 361.779 21.9009 360.884 21.8332C358.27 21.638 352.689 21.7217 349.472 21.7934C349.049 21.8053 348.704 21.4508 348.72 21.0245C348.759 19.7895 348.811 18.8175 348.858 18.0645C348.918 17.3196 349.029 17.0327 349.888 17.0327H351.77C354.634 17.0327 362.678 17.1522 365.847 17.3116C366.497 17.3474 367.047 16.8375 367.075 16.1842C367.21 13.0131 367.222 9.26032 367.087 6.15295C367.051 5.3801 366.433 4.76261 365.665 4.73074C360.84 4.53155 357.577 4.45984 352.217 4.43992C346.109 4.41602 340.081 4.69488 337.482 4.87017C335.652 4.9857 334.741 5.90197 334.626 7.74249C334.401 11.6028 334.088 18.8493 334.08 26.9444V27.2392C334.088 35.3343 334.401 42.5809 334.626 46.4412C334.741 48.2817 335.652 49.1979 337.482 49.3135C340.081 49.4888 346.109 49.7676 352.217 49.7437C357.573 49.7238 360.84 49.6521 365.665 49.4529C366.433 49.421 367.055 48.8036 367.087 48.0307C367.222 44.9233 367.214 41.1706 367.075 37.9995C367.047 37.3461 366.497 36.8362 365.847 36.8721V36.8681Z" fill="url(#paint3_linear_201_2307)" fill-opacity="0.24"/>
<path d="M40.1921 12.13C39.1068 7.42117 37.1105 5.18227 32.3097 4.72015C28.2537 4.31779 23.1836 4.14648 17.7609 4.14648C11.5342 4.14648 8.22282 4.14648 3.14084 4.49308C1.31085 4.60861 0.399818 5.52488 0.284949 7.3654C0.0591711 11.2735 -0.000244141 18.9105 -0.000244141 27.1251C-0.000244141 35.3397 0.05521 42.9766 0.284949 46.8847C0.399818 48.7252 1.31085 49.6415 3.14084 49.757C8.3971 50.1036 11.9343 50.1594 18.3313 50.1036C23.4133 50.0479 28.9389 49.7013 32.995 49.2431C37.7918 48.6695 39.7366 46.3708 40.7071 41.6022C41.6775 36.7778 41.9073 32.0092 41.9073 27.129C41.9073 22.2489 41.3369 17.1337 40.1921 12.138V12.13ZM26.1504 35.7699C25.8295 37.1324 24.9779 37.6622 23.9758 37.8216C22.6449 38.0327 20.799 38.1921 17.4322 38.1921H15.5507C14.6951 38.1921 14.5802 37.9052 14.5248 37.1603C14.4099 35.4353 14.295 31.7582 14.295 27.1649C14.295 22.5716 14.4099 18.8945 14.5248 17.1695C14.5802 16.4246 14.6951 16.1377 15.5507 16.1377H17.4322C20.803 16.1377 22.6488 16.3011 23.9758 16.5082C24.9739 16.6636 25.8256 17.1974 26.1504 18.5599C26.4712 19.9223 26.8594 22.9182 26.8594 27.1689C26.8594 31.4196 26.4712 34.4154 26.1504 35.7779V35.7699Z" fill="#3D3748"/>
<path d="M40.1921 12.13C39.1068 7.42117 37.1105 5.18227 32.3097 4.72015C28.2537 4.31779 23.1836 4.14648 17.7609 4.14648C11.5342 4.14648 8.22282 4.14648 3.14084 4.49308C1.31085 4.60861 0.399818 5.52488 0.284949 7.3654C0.0591711 11.2735 -0.000244141 18.9105 -0.000244141 27.1251C-0.000244141 35.3397 0.05521 42.9766 0.284949 46.8847C0.399818 48.7252 1.31085 49.6415 3.14084 49.757C8.3971 50.1036 11.9343 50.1594 18.3313 50.1036C23.4133 50.0479 28.9389 49.7013 32.995 49.2431C37.7918 48.6695 39.7366 46.3708 40.7071 41.6022C41.6775 36.7778 41.9073 32.0092 41.9073 27.129C41.9073 22.2489 41.3369 17.1337 40.1921 12.138V12.13ZM26.1504 35.7699C25.8295 37.1324 24.9779 37.6622 23.9758 37.8216C22.6449 38.0327 20.799 38.1921 17.4322 38.1921H15.5507C14.6951 38.1921 14.5802 37.9052 14.5248 37.1603C14.4099 35.4353 14.295 31.7582 14.295 27.1649C14.295 22.5716 14.4099 18.8945 14.5248 17.1695C14.5802 16.4246 14.6951 16.1377 15.5507 16.1377H17.4322C20.803 16.1377 22.6488 16.3011 23.9758 16.5082C24.9739 16.6636 25.8256 17.1974 26.1504 18.5599C26.4712 19.9223 26.8594 22.9182 26.8594 27.1689C26.8594 31.4196 26.4712 34.4154 26.1504 35.7779V35.7699Z" fill="url(#paint4_linear_201_2307)" fill-opacity="0.24"/>
<path d="M247.326 6.9028C247.425 10.2372 247.184 14.2848 246.518 17.683C246.348 18.5475 245.777 18.8701 244.866 18.7227C238.315 17.679 232.682 17.0057 228.016 16.942C227.268 16.93 227.014 17.0495 227.018 17.687V19.2725C227.018 19.7545 227.295 19.9976 227.683 20.1091C233.039 21.6668 238.687 23.2324 244.807 25.8298C246.328 26.4752 247.017 27.3676 247.326 29.0488C248.352 34.6699 248.352 39.4545 247.421 45.5935C247.021 48.2308 245.857 49.4379 243.131 49.7725C234.972 50.7724 219.73 50.0036 214.513 49.2387C213.404 49.0753 212.865 48.418 212.774 47.1313C212.572 44.1912 212.976 40.4902 213.658 37.598C213.828 36.873 214.521 36.371 215.297 36.4985C222.158 37.6179 226.25 38.2593 233.348 38.0761C234.104 38.0561 234.259 37.8809 234.29 37.1797C234.322 36.5622 234.362 36.4786 234.29 35.8053C234.247 35.4109 234.017 35.1161 233.625 35.0245C227.161 33.4947 221.239 31.3116 215.761 28.9532C214.264 28.3078 213.515 27.2441 213.257 25.4793C212.501 20.3003 212.323 14.4322 212.984 9.26121C213.329 6.58011 214.058 5.53635 216.83 5.13399C226.883 3.66396 238.541 4.17389 245.892 5.17781C246.93 5.31724 247.298 5.89091 247.33 6.9028H247.326Z" fill="#3D3748"/>
<path d="M247.326 6.9028C247.425 10.2372 247.184 14.2848 246.518 17.683C246.348 18.5475 245.777 18.8701 244.866 18.7227C238.315 17.679 232.682 17.0057 228.016 16.942C227.268 16.93 227.014 17.0495 227.018 17.687V19.2725C227.018 19.7545 227.295 19.9976 227.683 20.1091C233.039 21.6668 238.687 23.2324 244.807 25.8298C246.328 26.4752 247.017 27.3676 247.326 29.0488C248.352 34.6699 248.352 39.4545 247.421 45.5935C247.021 48.2308 245.857 49.4379 243.131 49.7725C234.972 50.7724 219.73 50.0036 214.513 49.2387C213.404 49.0753 212.865 48.418 212.774 47.1313C212.572 44.1912 212.976 40.4902 213.658 37.598C213.828 36.873 214.521 36.371 215.297 36.4985C222.158 37.6179 226.25 38.2593 233.348 38.0761C234.104 38.0561 234.259 37.8809 234.29 37.1797C234.322 36.5622 234.362 36.4786 234.29 35.8053C234.247 35.4109 234.017 35.1161 233.625 35.0245C227.161 33.4947 221.239 31.3116 215.761 28.9532C214.264 28.3078 213.515 27.2441 213.257 25.4793C212.501 20.3003 212.323 14.4322 212.984 9.26121C213.329 6.58011 214.058 5.53635 216.83 5.13399C226.883 3.66396 238.541 4.17389 245.892 5.17781C246.93 5.31724 247.298 5.89091 247.33 6.9028H247.326Z" fill="url(#paint5_linear_201_2307)" fill-opacity="0.24"/>
<path d="M327.287 30.6452C328.253 26.7012 328.432 14.4111 327.121 9.66245C326.019 5.66271 324.285 5.31214 320.169 4.91774C316.691 4.57115 312.342 4.42773 307.684 4.42773C302.344 4.42773 299.5 4.42773 295.139 4.72254C293.571 4.82213 292.787 5.61092 292.688 7.18851C292.493 10.5389 292.442 17.0922 292.442 24.1396H292.454C292.446 26.2311 292.442 28.3983 292.442 30.4579C292.442 36.8479 292.438 45.1582 292.501 48.2376C292.521 49.0623 293.139 49.7276 293.923 49.7714C295.282 49.8431 297.453 49.9387 299.552 49.9387C301.651 49.9387 304.048 49.8431 305.406 49.7714C306.191 49.7276 306.789 49.0583 306.828 48.2337C306.951 45.5207 306.955 41.9472 306.805 36.8041C306.793 36.3619 307.205 36.338 307.395 36.7244C309.474 40.9433 311.277 44.3136 313.36 48.0942C313.76 48.8193 314.592 49.7515 315.685 49.8112C317.032 49.8829 318.604 49.9865 320.791 49.9865C322.977 49.9865 324.803 49.867 326.705 49.6838C327.639 49.5961 328.051 48.8352 327.624 47.9986C325.314 43.4969 323.033 39.5768 320.724 35.7165C320.613 35.5333 320.728 35.2982 320.941 35.2703C322.051 35.1389 322.704 35.0911 323.544 34.9238C325.833 34.4776 326.574 33.5693 327.287 30.6491V30.6452ZM307.783 14.7059H309.403C315.301 14.7059 315.491 15.2756 315.495 19.7176C315.491 23.3548 315.281 24.6615 312.124 24.9483C311.332 25.02 309.498 24.9961 307.561 24.9443C307.125 24.9324 306.785 24.5738 306.785 24.1356C306.801 19.5064 306.836 16.4907 306.904 15.5943C306.951 14.9529 307.054 14.7059 307.787 14.7059H307.783Z" fill="#3D3748"/>
<path d="M327.287 30.6452C328.253 26.7012 328.432 14.4111 327.121 9.66245C326.019 5.66271 324.285 5.31214 320.169 4.91774C316.691 4.57115 312.342 4.42773 307.684 4.42773C302.344 4.42773 299.5 4.42773 295.139 4.72254C293.571 4.82213 292.787 5.61092 292.688 7.18851C292.493 10.5389 292.442 17.0922 292.442 24.1396H292.454C292.446 26.2311 292.442 28.3983 292.442 30.4579C292.442 36.8479 292.438 45.1582 292.501 48.2376C292.521 49.0623 293.139 49.7276 293.923 49.7714C295.282 49.8431 297.453 49.9387 299.552 49.9387C301.651 49.9387 304.048 49.8431 305.406 49.7714C306.191 49.7276 306.789 49.0583 306.828 48.2337C306.951 45.5207 306.955 41.9472 306.805 36.8041C306.793 36.3619 307.205 36.338 307.395 36.7244C309.474 40.9433 311.277 44.3136 313.36 48.0942C313.76 48.8193 314.592 49.7515 315.685 49.8112C317.032 49.8829 318.604 49.9865 320.791 49.9865C322.977 49.9865 324.803 49.867 326.705 49.6838C327.639 49.5961 328.051 48.8352 327.624 47.9986C325.314 43.4969 323.033 39.5768 320.724 35.7165C320.613 35.5333 320.728 35.2982 320.941 35.2703C322.051 35.1389 322.704 35.0911 323.544 34.9238C325.833 34.4776 326.574 33.5693 327.287 30.6491V30.6452ZM307.783 14.7059H309.403C315.301 14.7059 315.491 15.2756 315.495 19.7176C315.491 23.3548 315.281 24.6615 312.124 24.9483C311.332 25.02 309.498 24.9961 307.561 24.9443C307.125 24.9324 306.785 24.5738 306.785 24.1356C306.801 19.5064 306.836 16.4907 306.904 15.5943C306.951 14.9529 307.054 14.7059 307.787 14.7059H307.783Z" fill="url(#paint6_linear_201_2307)" fill-opacity="0.24"/>
<path d="M160.251 6.23258C160.195 5.39598 159.585 4.78646 158.761 4.73467C154.967 4.47971 151.628 4.4319 147.655 4.48767C147.045 4.49564 146.577 5.00158 146.625 5.61111C146.993 10.6187 146.74 22.4666 146.229 34.6929C146.213 35.0873 145.646 35.1231 145.579 34.7367C143.931 25.1278 141.452 12.6186 138.992 5.79038C138.83 5.33622 138.414 5.01752 137.934 4.98565C136.853 4.90597 133.973 4.78646 131.549 4.78646C129.125 4.78646 126.515 4.90199 125.497 4.98167C125.006 5.01752 124.59 5.35216 124.435 5.81826C122.158 12.778 119.63 24.8569 118.05 34.4857C117.987 34.8801 117.416 34.8403 117.4 34.4419C116.874 21.375 116.616 10.2443 116.949 5.63103C116.992 5.00557 116.521 4.49166 115.899 4.48369C111.934 4.42792 108.599 4.47971 104.812 4.73069C103.981 4.78646 103.378 5.39598 103.323 6.2286C102.004 20.4707 104.412 41.3339 105.64 48.3454C105.771 49.0864 106.409 49.6242 107.161 49.6242C113.083 49.8552 120.383 49.9469 126.265 49.8712C127.053 49.8592 127.711 49.2656 127.806 48.4768C128.792 40.0909 129.913 30.3426 131.288 22.3351C131.351 21.9766 131.862 21.9726 131.929 22.3311C133.506 30.3744 134.556 40.2702 135.677 48.5087C135.78 49.2816 136.433 49.8592 137.213 49.8672C143.507 49.915 150.661 49.8473 156.428 49.6321C157.161 49.6321 157.795 49.1103 157.937 48.3892C159.336 41.2662 161.586 20.5026 160.263 6.24055H160.255L160.251 6.23258Z" fill="#3D3748"/>
<path d="M160.251 6.23258C160.195 5.39598 159.585 4.78646 158.761 4.73467C154.967 4.47971 151.628 4.4319 147.655 4.48767C147.045 4.49564 146.577 5.00158 146.625 5.61111C146.993 10.6187 146.74 22.4666 146.229 34.6929C146.213 35.0873 145.646 35.1231 145.579 34.7367C143.931 25.1278 141.452 12.6186 138.992 5.79038C138.83 5.33622 138.414 5.01752 137.934 4.98565C136.853 4.90597 133.973 4.78646 131.549 4.78646C129.125 4.78646 126.515 4.90199 125.497 4.98167C125.006 5.01752 124.59 5.35216 124.435 5.81826C122.158 12.778 119.63 24.8569 118.05 34.4857C117.987 34.8801 117.416 34.8403 117.4 34.4419C116.874 21.375 116.616 10.2443 116.949 5.63103C116.992 5.00557 116.521 4.49166 115.899 4.48369C111.934 4.42792 108.599 4.47971 104.812 4.73069C103.981 4.78646 103.378 5.39598 103.323 6.2286C102.004 20.4707 104.412 41.3339 105.64 48.3454C105.771 49.0864 106.409 49.6242 107.161 49.6242C113.083 49.8552 120.383 49.9469 126.265 49.8712C127.053 49.8592 127.711 49.2656 127.806 48.4768C128.792 40.0909 129.913 30.3426 131.288 22.3351C131.351 21.9766 131.862 21.9726 131.929 22.3311C133.506 30.3744 134.556 40.2702 135.677 48.5087C135.78 49.2816 136.433 49.8592 137.213 49.8672C143.507 49.915 150.661 49.8473 156.428 49.6321C157.161 49.6321 157.795 49.1103 157.937 48.3892C159.336 41.2662 161.586 20.5026 160.263 6.24055H160.255L160.251 6.23258Z" fill="url(#paint7_linear_201_2307)" fill-opacity="0.24"/>
<path d="M473.044 6.17266C472.858 5.08508 472.074 4.77036 471.305 4.72654C467.772 4.5393 458.274 4.41182 452.396 4.48751C451.607 4.49947 450.946 5.09305 450.855 5.88185C449.868 14.2717 448.748 24.0281 447.369 32.0355C447.31 32.3901 446.803 32.398 446.731 32.0435C445.155 23.9962 444.105 14.0964 442.984 5.85396C442.881 5.0811 442.228 4.50345 441.451 4.49548C435.157 4.44768 428 4.5154 422.232 4.73053C421.5 4.73053 420.866 5.2524 420.723 5.97347C419.329 13.0965 417.075 33.8601 418.398 48.1221C418.454 48.9587 419.064 49.5682 419.888 49.62C423.682 49.875 427.021 49.9228 430.998 49.867C431.604 49.8591 432.076 49.3531 432.028 48.7436C431.66 43.732 431.913 31.8682 432.424 19.63C432.44 19.2395 433.002 19.1997 433.07 19.5861C434.722 29.199 437.201 41.7281 439.661 48.5643C439.827 49.0185 440.239 49.3372 440.719 49.369C441.8 49.4487 444.68 49.5682 447.104 49.5682C449.528 49.5682 452.138 49.4527 453.152 49.373C453.643 49.3372 454.063 49.0025 454.214 48.5364C456.495 41.5688 459.026 29.4699 460.603 19.8331C460.666 19.4467 461.233 19.4826 461.248 19.873C461.775 32.9558 462.033 44.1025 461.7 48.7157C461.656 49.3372 462.128 49.8551 462.75 49.863C466.719 49.9188 470.054 49.867 473.837 49.616C474.668 49.5603 475.274 48.9468 475.326 48.1181C476.645 33.876 474.233 13.1762 473.04 6.16071H473.044V6.17266Z" fill="#3D3748"/>
<path d="M473.044 6.17266C472.858 5.08508 472.074 4.77036 471.305 4.72654C467.772 4.5393 458.274 4.41182 452.396 4.48751C451.607 4.49947 450.946 5.09305 450.855 5.88185C449.868 14.2717 448.748 24.0281 447.369 32.0355C447.31 32.3901 446.803 32.398 446.731 32.0435C445.155 23.9962 444.105 14.0964 442.984 5.85396C442.881 5.0811 442.228 4.50345 441.451 4.49548C435.157 4.44768 428 4.5154 422.232 4.73053C421.5 4.73053 420.866 5.2524 420.723 5.97347C419.329 13.0965 417.075 33.8601 418.398 48.1221C418.454 48.9587 419.064 49.5682 419.888 49.62C423.682 49.875 427.021 49.9228 430.998 49.867C431.604 49.8591 432.076 49.3531 432.028 48.7436C431.66 43.732 431.913 31.8682 432.424 19.63C432.44 19.2395 433.002 19.1997 433.07 19.5861C434.722 29.199 437.201 41.7281 439.661 48.5643C439.827 49.0185 440.239 49.3372 440.719 49.369C441.8 49.4487 444.68 49.5682 447.104 49.5682C449.528 49.5682 452.138 49.4527 453.152 49.373C453.643 49.3372 454.063 49.0025 454.214 48.5364C456.495 41.5688 459.026 29.4699 460.603 19.8331C460.666 19.4467 461.233 19.4826 461.248 19.873C461.775 32.9558 462.033 44.1025 461.7 48.7157C461.656 49.3372 462.128 49.8551 462.75 49.863C466.719 49.9188 470.054 49.867 473.837 49.616C474.668 49.5603 475.274 48.9468 475.326 48.1181C476.645 33.876 474.233 13.1762 473.04 6.16071H473.044V6.17266Z" fill="url(#paint8_linear_201_2307)" fill-opacity="0.24"/>
<path fill-rule="evenodd" clip-rule="evenodd" d="M94.1725 11.7592C95.7014 12.7671 96.4976 14.273 96.7036 16.1693C97.27 22.882 97.171 30.4393 96.7036 38.4587C96.5649 40.4307 95.8599 41.6019 94.1725 42.8688C88.631 47.1075 82.135 50.7647 74.9774 54.0154C72.9098 54.9596 71.7849 54.872 69.9153 54.0154C63.0785 50.8842 56.6934 47.1513 50.7202 42.8688C49.0566 41.582 48.3317 40.4984 48.1891 38.4587C47.7732 31.3476 47.8128 23.8899 48.1891 16.1693C48.2881 14.2292 49.215 12.8548 50.7202 11.7592C56.4399 7.61209 62.8845 3.92308 69.9153 0.612543C71.5868 -0.192186 73.3059 -0.216089 74.9774 0.612543C81.8379 3.96691 88.231 7.68379 94.1725 11.7592ZM89.8833 22.5948C85.6054 24.6982 81.581 26.973 77.8141 29.419H77.8102C77.2873 29.7617 76.9546 30.3353 76.9229 30.9648C76.709 35.2274 76.7367 39.761 76.9229 44.4738C76.9467 45.0953 77.6002 45.4937 78.1587 45.2228C82.5 43.1114 86.5838 40.7331 90.2992 37.9683C90.7627 37.6257 91.0479 37.0839 91.0835 36.5062C91.3845 31.5464 91.3806 27.1802 91.1231 23.3159C91.0795 22.7024 90.4339 22.3239 89.8833 22.5948Z" fill="#3D3748"/>
<path fill-rule="evenodd" clip-rule="evenodd" d="M94.1725 11.7592C95.7014 12.7671 96.4976 14.273 96.7036 16.1693C97.27 22.882 97.171 30.4393 96.7036 38.4587C96.5649 40.4307 95.8599 41.6019 94.1725 42.8688C88.631 47.1075 82.135 50.7647 74.9774 54.0154C72.9098 54.9596 71.7849 54.872 69.9153 54.0154C63.0785 50.8842 56.6934 47.1513 50.7202 42.8688C49.0566 41.582 48.3317 40.4984 48.1891 38.4587C47.7732 31.3476 47.8128 23.8899 48.1891 16.1693C48.2881 14.2292 49.215 12.8548 50.7202 11.7592C56.4399 7.61209 62.8845 3.92308 69.9153 0.612543C71.5868 -0.192186 73.3059 -0.216089 74.9774 0.612543C81.8379 3.96691 88.231 7.68379 94.1725 11.7592ZM89.8833 22.5948C85.6054 24.6982 81.581 26.973 77.8141 29.419H77.8102C77.2873 29.7617 76.9546 30.3353 76.9229 30.9648C76.709 35.2274 76.7367 39.761 76.9229 44.4738C76.9467 45.0953 77.6002 45.4937 78.1587 45.2228C82.5 43.1114 86.5838 40.7331 90.2992 37.9683C90.7627 37.6257 91.0479 37.0839 91.0835 36.5062C91.3845 31.5464 91.3806 27.1802 91.1231 23.3159C91.0795 22.7024 90.4339 22.3239 89.8833 22.5948Z" fill="url(#paint9_linear_201_2307)" fill-opacity="0.24"/>
</g>
<defs>
<filter id="filter0_di_201_2307" x="-0.000244141" y="0" width="475.709" height="56.2388" filterUnits="userSpaceOnUse" color-interpolation-filters="sRGB">
<feFlood flood-opacity="0" result="BackgroundImageFix"/>
<feColorMatrix in="SourceAlpha" type="matrix" values="0 0 0 0 0 0 0 0 0 0 0 0 0 0 0 0 0 0 127 0" result="hardAlpha"/>
<feOffset dy="1.54786"/>
<feColorMatrix type="matrix" values="0 0 0 0 1 0 0 0 0 1 0 0 0 0 1 0 0 0 1 0"/>
<feBlend mode="normal" in2="BackgroundImageFix" result="effect1_dropShadow_201_2307"/>
<feBlend mode="normal" in="SourceGraphic" in2="effect1_dropShadow_201_2307" result="shape"/>
<feColorMatrix in="SourceAlpha" type="matrix" values="0 0 0 0 0 0 0 0 0 0 0 0 0 0 0 0 0 0 127 0" result="hardAlpha"/>
<feOffset dy="1.54786"/>
<feComposite in2="hardAlpha" operator="arithmetic" k2="-1" k3="1"/>
<feColorMatrix type="matrix" values="0 0 0 0 0 0 0 0 0 0 0 0 0 0 0 0 0 0 0.64 0"/>
<feBlend mode="normal" in2="shape" result="effect2_innerShadow_201_2307"/>
</filter>
<linearGradient id="paint0_linear_201_2307" x1="186.811" y1="4.67969" x2="186.811" y2="49.8084" gradientUnits="userSpaceOnUse">
<stop/>
<stop offset="0.640625" stop-opacity="0"/>
</linearGradient>
<linearGradient id="paint1_linear_201_2307" x1="270.142" y1="4.38428" x2="270.142" y2="49.9231" gradientUnits="userSpaceOnUse">
<stop/>
<stop offset="0.640625" stop-opacity="0"/>
</linearGradient>
<linearGradient id="paint2_linear_201_2307" x1="392.198" y1="3.51123" x2="392.198" y2="49.9367" gradientUnits="userSpaceOnUse">
<stop/>
<stop offset="0.640625" stop-opacity="0"/>
</linearGradient>
<linearGradient id="paint3_linear_201_2307" x1="350.632" y1="4.43848" x2="350.632" y2="49.7452" gradientUnits="userSpaceOnUse">
<stop/>
<stop offset="0.640625" stop-opacity="0"/>
</linearGradient>
<linearGradient id="paint4_linear_201_2307" x1="20.9535" y1="4.14648" x2="20.9535" y2="50.1224" gradientUnits="userSpaceOnUse">
<stop/>
<stop offset="0.640625" stop-opacity="0"/>
</linearGradient>
<linearGradient id="paint5_linear_201_2307" x1="230.342" y1="4.2168" x2="230.342" y2="50.2487" gradientUnits="userSpaceOnUse">
<stop/>
<stop offset="0.640625" stop-opacity="0"/>
</linearGradient>
<linearGradient id="paint6_linear_201_2307" x1="310.25" y1="4.42773" x2="310.25" y2="49.9865" gradientUnits="userSpaceOnUse">
<stop/>
<stop offset="0.640625" stop-opacity="0"/>
</linearGradient>
<linearGradient id="paint7_linear_201_2307" x1="131.802" y1="4.46338" x2="131.802" y2="49.8972" gradientUnits="userSpaceOnUse">
<stop/>
<stop offset="0.640625" stop-opacity="0"/>
</linearGradient>
<linearGradient id="paint8_linear_201_2307" x1="446.853" y1="4.46533" x2="446.853" y2="49.8878" gradientUnits="userSpaceOnUse">
<stop/>
<stop offset="0.640625" stop-opacity="0"/>
</linearGradient>
<linearGradient id="paint9_linear_201_2307" x1="72.492" y1="0" x2="72.492" y2="54.6911" gradientUnits="userSpaceOnUse">
<stop/>
<stop offset="0.640625" stop-opacity="0"/>
</linearGradient>
</defs>
</svg>
