<svg width="34" height="32" viewBox="0 0 34 32" fill="none" xmlns="http://www.w3.org/2000/svg">
<g filter="url(#filter0_d_201_2662)">
<path fill-rule="evenodd" clip-rule="evenodd" d="M31.5182 9.85932C32.4319 9.31605 33.4424 8.3494 33.4255 6.73746C33.3949 3.80768 30.5147 3.79478 29.5506 5.07017C29.2933 5.4104 29.113 5.7517 28.9927 6.09048C26.0115 2.5169 21.8212 -0.0520958 16.8216 0.000802096C11.822 0.0537001 7.71446 2.69164 4.81041 6.30675C4.68319 5.98378 4.49966 5.65764 4.24487 5.33603C3.25611 4.08319 0.374992 4.15704 0.405666 7.08494C0.422356 8.67803 1.4285 9.61957 2.344 10.1473C0.873558 13.0628 0.0865815 16.2067 0.115774 18.9932C0.22579 29.4944 13.0707 30.7726 17.1417 30.7296C21.2126 30.6865 34.028 29.1368 33.9179 18.6356C33.8888 15.8566 33.04 12.7375 31.5145 9.85936L31.5182 9.85932ZM11.639 17.286C11.639 19.1953 10.4351 20.7431 8.95003 20.7431C7.46498 20.7431 6.26111 19.1953 6.26111 17.286C6.26111 15.3766 7.46498 13.8288 8.95003 13.8288C10.4351 13.8288 11.639 15.3766 11.639 17.286ZM25.0836 20.7431C26.5686 20.7431 27.7725 19.1953 27.7725 17.286C27.7725 15.3766 26.5686 13.8288 25.0836 13.8288C23.5985 13.8288 22.3947 15.3766 22.3947 17.286C22.3947 19.1953 23.5985 20.7431 25.0836 20.7431Z" fill="#FB7001"/>
</g>
<defs>
<filter id="filter0_d_201_2662" x="0.11499" y="0" width="33.8037" height="31.7305" filterUnits="userSpaceOnUse" color-interpolation-filters="sRGB">
<feFlood flood-opacity="0" result="BackgroundImageFix"/>
<feColorMatrix in="SourceAlpha" type="matrix" values="0 0 0 0 0 0 0 0 0 0 0 0 0 0 0 0 0 0 127 0" result="hardAlpha"/>
<feOffset dy="1"/>
<feComposite in2="hardAlpha" operator="out"/>
<feColorMatrix type="matrix" values="0 0 0 0 1 0 0 0 0 1 0 0 0 0 1 0 0 0 1 0"/>
<feBlend mode="normal" in2="BackgroundImageFix" result="effect1_dropShadow_201_2662"/>
<feBlend mode="normal" in="SourceGraphic" in2="effect1_dropShadow_201_2662" result="shape"/>
</filter>
</defs>
</svg>
