<svg width="26" height="20" viewBox="0 0 26 20" fill="none" xmlns="http://www.w3.org/2000/svg">
<g id="Vector" filter="url(#filter0_d_201_2275)">
<path d="M21.4391 1.49211C19.8869 0.801475 18.2225 0.292649 16.4821 0.00122249C16.4505 -0.00440193 16.4188 0.00965383 16.4025 0.037766C16.1884 0.406967 15.9512 0.88862 15.7852 1.26719C13.9134 0.995453 12.0512 0.995453 10.2177 1.26719C10.0517 0.880204 9.80593 0.406967 9.59091 0.037766C9.57459 0.0105918 9.54292 -0.00346398 9.51123 0.00122249C7.77188 0.291717 6.1074 0.800544 4.55426 1.49211C4.54081 1.49773 4.52929 1.5071 4.52164 1.51928C1.36448 6.09314 0.499601 10.5546 0.923881 14.9607C0.925801 14.9822 0.93828 15.0028 0.955558 15.016C3.03856 16.4994 5.05631 17.3999 7.03659 17.9968C7.06828 18.0062 7.10186 17.9949 7.12203 17.9696C7.59047 17.3493 8.00803 16.6952 8.36606 16.0074C8.38719 15.9671 8.36701 15.9193 8.32383 15.9034C7.6615 15.6597 7.03083 15.3626 6.42416 15.0254C6.37618 14.9982 6.37233 14.9316 6.41648 14.8997C6.54414 14.807 6.67184 14.7105 6.79375 14.613C6.8158 14.5952 6.84653 14.5915 6.87246 14.6027C10.858 16.3672 15.1727 16.3672 19.1113 14.6027C19.1372 14.5905 19.168 14.5942 19.191 14.612C19.3129 14.7095 19.4406 14.807 19.5692 14.8997C19.6133 14.9316 19.6105 14.9982 19.5625 15.0254C18.9558 15.3692 18.3251 15.6597 17.6618 15.9024C17.6187 15.9184 17.5994 15.9671 17.6205 16.0074C17.9863 16.6942 18.4039 17.3484 18.8637 17.9687C18.8828 17.9949 18.9174 18.0062 18.9491 17.9968C20.9389 17.3999 22.9567 16.4994 25.0397 15.016C25.0579 15.0028 25.0695 14.9831 25.0714 14.9617C25.5792 9.86766 24.2209 5.44282 21.4707 1.52021C21.464 1.5071 21.4526 1.49773 21.4391 1.49211ZM8.96123 12.2778C7.76131 12.2778 6.77261 11.2096 6.77261 9.89766C6.77261 8.58574 7.74214 7.5175 8.96123 7.5175C10.1899 7.5175 11.169 8.59513 11.1498 9.89766C11.1498 11.2096 10.1803 12.2778 8.96123 12.2778ZM17.0532 12.2778C15.8534 12.2778 14.8647 11.2096 14.8647 9.89766C14.8647 8.58574 15.8341 7.5175 17.0532 7.5175C18.2819 7.5175 19.261 8.59513 19.2418 9.89766C19.2418 11.2096 18.2819 12.2778 17.0532 12.2778Z" fill="#FB7001"/>
</g>
<defs>
<filter id="filter0_d_201_2275" x="0.823242" y="0" width="24.353" height="19.8438" filterUnits="userSpaceOnUse" color-interpolation-filters="sRGB">
<feFlood flood-opacity="0" result="BackgroundImageFix"/>
<feColorMatrix in="SourceAlpha" type="matrix" values="0 0 0 0 0 0 0 0 0 0 0 0 0 0 0 0 0 0 127 0" result="hardAlpha"/>
<feOffset dy="1.84384"/>
<feComposite in2="hardAlpha" operator="out"/>
<feColorMatrix type="matrix" values="0 0 0 0 1 0 0 0 0 1 0 0 0 0 1 0 0 0 1 0"/>
<feBlend mode="normal" in2="BackgroundImageFix" result="effect1_dropShadow_201_2275"/>
<feBlend mode="normal" in="SourceGraphic" in2="effect1_dropShadow_201_2275" result="shape"/>
</filter>
</defs>
</svg>
