<svg width="24" height="24" viewBox="0 0 24 24" fill="none" xmlns="http://www.w3.org/2000/svg">
<g id="info-hex" filter="url(#filter0_d_201_2272)">
<path id="Icon" fill-rule="evenodd" clip-rule="evenodd" d="M9.09665 3.07932C10.5136 2.2657 11.222 1.85889 11.9999 1.85889C12.7779 1.85889 13.4863 2.2657 14.9032 3.07932L18.3158 5.03893C19.7327 5.85256 20.4412 6.25937 20.8302 6.92943C21.2191 7.5995 21.2191 8.41312 21.2191 10.0404V13.9596C21.2191 15.5868 21.2191 16.4005 20.8302 17.0705C20.4412 17.7406 19.7327 18.1474 18.3158 18.961L14.9032 20.9206C13.4863 21.7343 12.7779 22.1411 11.9999 22.1411C11.222 22.1411 10.5136 21.7343 9.09665 20.9206L5.68405 18.961C4.26715 18.1474 3.5587 17.7406 3.16973 17.0705C2.78076 16.4005 2.78076 15.5868 2.78076 13.9596V10.0404C2.78076 8.41313 2.78076 7.5995 3.16973 6.92943C3.55869 6.25937 4.26715 5.85256 5.68404 5.03894L9.09665 3.07932ZM13.8438 8.31231C13.8438 8.96421 13.8438 9.29015 13.6123 9.49267C13.3809 9.69519 13.0084 9.69519 12.2633 9.69519H11.7365C10.9915 9.69519 10.619 9.69519 10.3876 9.49267C10.1561 9.29015 10.1561 8.96421 10.1561 8.31231V7.85135C10.1561 7.19946 10.1561 6.87351 10.3876 6.67099C10.619 6.46848 10.9915 6.46848 11.7365 6.46848H12.2633C13.0084 6.46848 13.3809 6.46848 13.6123 6.67099C13.8438 6.87351 13.8438 7.19946 13.8438 7.85135V8.31231ZM13.7853 16.0993C13.8128 16.7723 13.8265 17.1088 13.5935 17.3202C13.3604 17.5315 12.9756 17.5315 12.2059 17.5315H11.794C11.0243 17.5315 10.6394 17.5315 10.4064 17.3202C10.1734 17.1088 10.1871 16.7723 10.2146 16.0993L10.486 12.4609C10.5032 12.0406 10.5118 11.8304 10.6648 11.7012C10.8179 11.5719 11.0583 11.5719 11.539 11.5719H12.4609C12.9416 11.5719 13.182 11.5719 13.335 11.7012C13.4881 11.8304 13.4967 12.0406 13.5138 12.4609L13.7853 16.0993Z" fill="#FB7001"/>
</g>
<defs>
<filter id="filter0_d_201_2272" x="0.937012" y="0.937012" width="22.126" height="23.9698" filterUnits="userSpaceOnUse" color-interpolation-filters="sRGB">
<feFlood flood-opacity="0" result="BackgroundImageFix"/>
<feColorMatrix in="SourceAlpha" type="matrix" values="0 0 0 0 0 0 0 0 0 0 0 0 0 0 0 0 0 0 127 0" result="hardAlpha"/>
<feOffset dy="1.84384"/>
<feComposite in2="hardAlpha" operator="out"/>
<feColorMatrix type="matrix" values="0 0 0 0 1 0 0 0 0 1 0 0 0 0 1 0 0 0 1 0"/>
<feBlend mode="normal" in2="BackgroundImageFix" result="effect1_dropShadow_201_2272"/>
<feBlend mode="normal" in="SourceGraphic" in2="effect1_dropShadow_201_2272" result="shape"/>
</filter>
</defs>
</svg>
