<svg width="185" height="107" viewBox="0 0 185 107" fill="none" xmlns="http://www.w3.org/2000/svg">
<rect width="185" height="107" fill="#2F2A38"/>
<g id="Fancier" clip-path="url(#clip0_10_122)">
<rect width="1440" height="3387" transform="translate(-112 -3203)" fill="#EFEDF5"/>
<g id="Group 14327">
<g id="Frame 1488" filter="url(#filter0_dd_10_122)">
<rect y="2" width="184.384" height="102.333" rx="8.29726" fill="#3D3748"/>
<rect y="2" width="184.384" height="102.333" rx="8.29726" fill="url(#paint0_linear_10_122)" fill-opacity="0.24"/>
<rect x="1.38288" y="3.38288" width="181.618" height="99.5671" rx="6.91438" stroke="#0D090F" stroke-width="2.76575"/>
<g id="Group 1469" filter="url(#filter1_d_10_122)">
<g id="Icon">
<path d="M47.5083 55.6229L46.3938 49.6815C46.3732 49.5718 46.3378 49.4685 46.2899 49.3732L42.5787 54.6823L47.5188 55.689C47.5159 55.667 47.5124 55.6449 47.5083 55.6229Z" fill="#EDEBF3"/>
<path d="M41.5358 54.0874L45.2897 48.7171C45.1925 48.7109 45.093 48.7163 44.9929 48.7344L38.9374 49.8279C38.7388 49.8637 38.5607 49.9455 38.4123 50.06L39.9329 52.0651L41.5358 54.0874Z" fill="#EDEBF3"/>
<path d="M38.9754 52.7798L38.0354 51.5403L39.0865 57.1437C39.1067 57.2513 39.1412 57.3528 39.1876 57.4466L40.8216 55.109L38.9754 52.7798Z" fill="#EDEBF3"/>
<path d="M40.4874 58.0909C40.3851 58.1093 40.2835 58.1145 40.1843 58.1077L41.8411 55.7375L47.0283 56.7946C46.8882 56.8937 46.7241 56.9646 46.5429 56.9973L40.4874 58.0909Z" fill="#EDEBF3"/>
<path fill-rule="evenodd" clip-rule="evenodd" d="M42.036 62.1032C46.9742 62.4804 51.2891 58.8584 51.6735 54.0133C52.058 49.1682 48.3664 44.9347 43.4282 44.5575C38.4899 44.1803 34.1751 47.8023 33.7906 52.6474C33.4062 57.4925 37.0978 61.726 42.036 62.1032ZM47.5769 49.4679C47.3364 48.1857 46.082 47.3375 44.7751 47.5735L38.7196 48.6671C37.4128 48.903 36.5483 50.1338 36.7889 51.416L37.9034 57.3573C38.1439 58.6396 39.3983 59.4877 40.7052 59.2517L46.7607 58.1582C48.0675 57.9222 48.932 56.6914 48.6914 55.4092L47.5769 49.4679Z" fill="#EDEBF3"/>
<path fill-rule="evenodd" clip-rule="evenodd" d="M28.9392 45.7474C28.9392 42.4613 31.6543 39.7974 35.0036 39.7974H50.7159C54.0651 39.7974 56.7802 42.4613 56.7802 45.7474V61.1635C56.7802 64.4496 54.0651 67.1135 50.7159 67.1135H35.0036C31.6543 67.1135 28.9392 64.4496 28.9392 61.1635V45.7474ZM48.6117 41.1496H50.7159C53.3039 41.1496 55.402 43.2081 55.402 45.7474V61.1635C55.402 63.7028 53.3039 65.7612 50.7159 65.7612H48.6528C47.2252 64.2633 45.193 63.3271 42.9379 63.3271C40.6828 63.3271 38.6506 64.2633 37.223 65.7612H35.0036C32.4155 65.7612 30.3175 63.7028 30.3175 61.1635V45.7474C30.3175 43.2081 32.4155 41.1496 35.0036 41.1496H37.2641C38.6895 42.6225 40.7044 43.5409 42.9379 43.5409C45.1714 43.5409 47.1863 42.6225 48.6117 41.1496Z" fill="#EDEBF3"/>
</g>
<g id="Logotype">
<g id="Playmint">
<path d="M66.203 55.8079V61.7551H62.7087V45.0562H70.2203C72.1219 45.0562 73.5403 45.5615 74.4752 46.5721C75.2993 47.4584 75.7113 48.6789 75.7113 50.2338C75.7113 52.0529 75.1884 53.4678 74.1425 54.4785C73.2233 55.3647 72.0348 55.8079 70.5769 55.8079H66.203ZM66.203 52.9392H69.4596C71.2979 52.9392 72.217 52.1073 72.217 50.4437C72.217 48.7644 71.2979 47.9248 69.4596 47.9248H66.203V52.9392Z" fill="#EDEBF3"/>
<path d="M80.614 45.0562V61.7551H77.3337V45.0562H80.614Z" fill="#EDEBF3"/>
<path d="M94.0787 60.9388V61.7551H90.5131C90.2754 61.4597 90.1486 61.0399 90.1327 60.4957C89.2611 61.5064 87.9934 62.0117 86.3294 62.0117C85.1092 62.0117 84.1267 61.6463 83.3818 60.9155C82.7797 60.3247 82.4786 59.5084 82.4786 58.4666C82.4786 56.9118 83.1124 55.8079 84.3802 55.1548C84.919 54.875 85.9887 54.5951 87.5893 54.3152L90.1565 53.8488L90.1327 52.9625C90.1169 52.1384 89.483 51.7264 88.2311 51.7264C87.4229 51.7264 86.8524 51.8508 86.5196 52.0996C86.2026 52.3328 86.0045 52.7682 85.9253 53.4056H82.7876C82.9777 50.5603 84.7685 49.1376 88.1598 49.1376C90.0297 49.1376 91.3767 49.4641 92.2008 50.1172C92.9456 50.7391 93.318 51.6798 93.318 52.9392V59.8427C93.318 60.4024 93.5716 60.7678 94.0787 60.9388ZM90.1565 55.7845L87.7557 56.321C87.0742 56.4764 86.5671 56.7019 86.2343 56.9973C85.9174 57.2927 85.7589 57.6581 85.7589 58.0935C85.7589 58.9797 86.3453 59.4229 87.5179 59.4229C89.2136 59.4229 90.0852 58.5133 90.1327 56.6941L90.1565 55.7845Z" fill="#EDEBF3"/>
<path d="M103.537 49.3942H106.889L101.707 63.9941C101.342 65.0358 100.859 65.7511 100.257 66.1398C99.6544 66.544 98.7591 66.7462 97.5705 66.7462C96.4771 66.7462 95.7164 66.6062 95.2886 66.3264L95.7877 64.1574C96.3582 64.2973 96.8337 64.3673 97.214 64.3673C97.7686 64.3673 98.2441 64.1807 98.6402 63.8075C99.0364 63.4499 99.2345 63.0223 99.2345 62.5248V62.2682L94.5517 49.3942H98.141L100.946 58.3967L103.537 49.3942Z" fill="#EDEBF3"/>
<path d="M108.313 49.3942H111.569V50.8868C112.536 49.7207 113.685 49.1376 115.016 49.1376C116.648 49.1376 117.789 49.744 118.439 50.9568C119.39 49.744 120.618 49.1376 122.123 49.1376C123.391 49.1376 124.374 49.4797 125.071 50.1638C125.784 50.8324 126.141 51.7653 126.141 52.9625V61.7551H122.884V53.4756C122.884 52.4028 122.29 51.8663 121.101 51.8663C120.404 51.8663 119.857 52.084 119.461 52.5194C119.065 52.9392 118.867 53.53 118.867 54.2919V61.7551H115.586V53.4756C115.586 52.4028 115 51.8663 113.827 51.8663C113.13 51.8663 112.583 52.084 112.187 52.5194C111.791 52.9392 111.593 53.53 111.593 54.2919V61.7551H108.313V49.3942Z" fill="#EDEBF3"/>
<path d="M131.535 49.3942V61.7551H128.255V49.3942H131.535Z" fill="#EDEBF3"/>
<path d="M134.232 49.3942H137.512V51.1433C138.4 49.8062 139.652 49.1376 141.268 49.1376C142.71 49.1376 143.804 49.5574 144.548 50.397C145.182 51.1433 145.499 52.154 145.499 53.429V61.7551H142.243V54.082C142.243 52.6049 141.537 51.8663 140.127 51.8663C139.335 51.8663 138.701 52.0918 138.225 52.5427C137.75 52.9781 137.512 53.5611 137.512 54.2919V61.7551H134.232V49.3942Z" fill="#EDEBF3"/>
<path d="M153.999 49.3942V51.5165H151.789V58.3967C151.789 58.8476 151.868 59.1585 152.026 59.3296C152.201 59.5006 152.51 59.5861 152.953 59.5861C153.318 59.5861 153.785 59.4462 154.356 59.1663C154.403 59.1352 154.443 59.1119 154.475 59.0964L154.855 61.2887C153.857 61.7707 152.811 62.0117 151.717 62.0117C149.578 62.0117 148.508 61.0477 148.508 59.1197V51.5165H146.892V49.3942H148.508V47.3418L151.789 45.4993V49.3942H153.999Z" fill="#EDEBF3"/>
</g>
<ellipse id="Ellipse 39" cx="129.709" cy="45.5824" rx="1.87602" ry="1.84066" fill="#EDEBF3"/>
</g>
</g>
</g>
</g>
</g>
<defs>
<filter id="filter0_dd_10_122" x="0" y="0.156164" width="184.384" height="106.021" filterUnits="userSpaceOnUse" color-interpolation-filters="sRGB">
<feFlood flood-opacity="0" result="BackgroundImageFix"/>
<feColorMatrix in="SourceAlpha" type="matrix" values="0 0 0 0 0 0 0 0 0 0 0 0 0 0 0 0 0 0 127 0" result="hardAlpha"/>
<feOffset dy="1.84384"/>
<feComposite in2="hardAlpha" operator="out"/>
<feColorMatrix type="matrix" values="0 0 0 0 1 0 0 0 0 1 0 0 0 0 1 0 0 0 1 0"/>
<feBlend mode="normal" in2="BackgroundImageFix" result="effect1_dropShadow_10_122"/>
<feColorMatrix in="SourceAlpha" type="matrix" values="0 0 0 0 0 0 0 0 0 0 0 0 0 0 0 0 0 0 127 0" result="hardAlpha"/>
<feOffset dy="-1.84384"/>
<feComposite in2="hardAlpha" operator="out"/>
<feColorMatrix type="matrix" values="0 0 0 0 0.658824 0 0 0 0 0.635294 0 0 0 0 0.709804 0 0 0 0.24 0"/>
<feBlend mode="normal" in2="effect1_dropShadow_10_122" result="effect2_dropShadow_10_122"/>
<feBlend mode="normal" in="SourceGraphic" in2="effect2_dropShadow_10_122" result="shape"/>
</filter>
<filter id="filter1_d_10_122" x="28.9392" y="39.7974" width="125.916" height="29.2937" filterUnits="userSpaceOnUse" color-interpolation-filters="sRGB">
<feFlood flood-opacity="0" result="BackgroundImageFix"/>
<feColorMatrix in="SourceAlpha" type="matrix" values="0 0 0 0 0 0 0 0 0 0 0 0 0 0 0 0 0 0 127 0" result="hardAlpha"/>
<feOffset dy="1.9773"/>
<feComposite in2="hardAlpha" operator="out"/>
<feColorMatrix type="matrix" values="0 0 0 0 0.0509804 0 0 0 0 0.0352941 0 0 0 0 0.0588235 0 0 0 0.32 0"/>
<feBlend mode="normal" in2="BackgroundImageFix" result="effect1_dropShadow_10_122"/>
<feBlend mode="normal" in="SourceGraphic" in2="effect1_dropShadow_10_122" result="shape"/>
</filter>
<linearGradient id="paint0_linear_10_122" x1="92.1918" y1="2" x2="92.1918" y2="104.333" gradientUnits="userSpaceOnUse">
<stop stop-color="#0D090F"/>
<stop offset="0.391272" stop-color="#0D090F" stop-opacity="0"/>
</linearGradient>
<clipPath id="clip0_10_122">
<rect width="1440" height="3387" fill="white" transform="translate(-112 -3203)"/>
</clipPath>
</defs>
</svg>
