<svg width="16" height="17" viewBox="0 0 16 17" fill="none" xmlns="http://www.w3.org/2000/svg">
<path d="M13.3334 14.5C13.3334 13.5696 13.3334 13.1044 13.2186 12.7259C12.9601 11.8736 12.2931 11.2067 11.4408 10.9482C11.0623 10.8333 10.5971 10.8333 9.66675 10.8333H6.33342C5.40304 10.8333 4.93785 10.8333 4.55932 10.9482C3.70705 11.2067 3.04011 11.8736 2.78157 12.7259C2.66675 13.1044 2.66675 13.5696 2.66675 14.5M11.0001 5.5C11.0001 7.15685 9.65694 8.5 8.00008 8.5C6.34323 8.5 5.00008 7.15685 5.00008 5.5C5.00008 3.84315 6.34323 2.5 8.00008 2.5C9.65694 2.5 11.0001 3.84315 11.0001 5.5Z" stroke="#FB7001" stroke-linecap="round" stroke-linejoin="round"/>
</svg>
