<?xml version="1.0" encoding="UTF-8"?>
<svg xmlns="http://www.w3.org/2000/svg" viewBox="0 0 76 84">
  <defs>
    <style>
      .cls-1 {
        fill: #0d090f;
      }

      .cls-2 {
        fill: #fff;
        fill-rule: evenodd;
      }
    </style>
  </defs>
  <g id="bg">
    <path class="cls-1" d="m27.84,4.26c4.96-2.84,7.44-4.26,10.16-4.26s5.2,1.42,10.16,4.26l17.68,10.13c4.96,2.84,7.44,4.26,8.8,6.6,1.36,2.34,1.36,5.18,1.36,10.87v20.27c0,5.68,0,8.53-1.36,10.87-1.36,2.34-3.84,3.76-8.8,6.6l-17.68,10.13c-4.96,2.84-7.44,4.26-10.16,4.26s-5.2-1.42-10.16-4.26l-17.68-10.13c-4.96-2.84-7.44-4.26-8.8-6.6-1.36-2.34-1.36-5.18-1.36-10.87v-20.27c0-5.68,0-8.53,1.36-10.87,1.36-2.34,3.84-3.76,8.8-6.6L27.84,4.26Z"/>
  </g>
  <g id="inner">
    <path class="cls-1" d="m28.94,6.95c4.59-2.63,6.89-3.95,9.41-3.95s4.82,1.32,9.41,3.95l16.37,9.38c4.59,2.63,6.89,3.95,8.15,6.11,1.26,2.17,1.26,4.8,1.26,10.06v18.77c0,5.26,0,7.89-1.26,10.06-1.26,2.17-3.56,3.48-8.15,6.11l-16.37,9.38c-4.59,2.63-6.89,3.95-9.41,3.95s-4.82-1.32-9.41-3.95l-16.37-9.38c-4.59-2.63-6.89-3.95-8.15-6.11-1.26-2.17-1.26-4.8-1.26-10.06v-18.77c0-5.26,0-7.89,1.26-10.06,1.26-2.17,3.56-3.48,8.15-6.11L28.94,6.95Z"/>
  </g>
  <g id="Layer_2" data-name="Layer 2">
    <path class="cls-2" d="m55.19,37.22c1.08-.64,2.28-1.78,2.26-3.67-.04-3.45-3.45-3.46-4.59-1.96-.31.4-.52.8-.66,1.2-3.53-4.21-8.5-7.23-14.43-7.17-5.93.06-10.8,3.17-14.24,7.42-.15-.38-.37-.76-.67-1.14-1.17-1.47-4.59-1.39-4.55,2.06.02,1.88,1.21,2.98,2.3,3.6-1.74,3.43-2.68,7.13-2.64,10.41.13,12.36,15.36,13.86,20.19,13.81,4.83-.05,20.02-1.87,19.89-14.24-.03-3.27-1.04-6.94-2.85-10.33h0Zm-23.57,8.74c0,2.25-1.43,4.07-3.19,4.07s-3.19-1.82-3.19-4.07,1.43-4.07,3.19-4.07,3.19,1.82,3.19,4.07Zm15.94,4.07c1.76,0,3.19-1.82,3.19-4.07s-1.43-4.07-3.19-4.07-3.19,1.82-3.19,4.07,1.43,4.07,3.19,4.07Z"/>
  </g>
</svg>