<svg width="80" height="102" viewBox="0 0 80 102" fill="none" xmlns="http://www.w3.org/2000/svg">
<path d="M44.3708 94.5655L49.7776 82.4002L29.8665 82.4002L35.2733 94.5655C37.2275 98.9624 38.2046 101.161 39.8221 101.161C41.4396 101.161 42.4166 98.9624 44.3708 94.5655Z" fill="#0D090F"/>
<path fill-rule="evenodd" clip-rule="evenodd" d="M67.7751 14.3656C69.8657 15.5724 71.7366 16.6524 73.2183 17.7144C74.8332 18.8718 76.3065 20.2239 77.4039 22.1247C78.5014 24.0255 78.9357 25.9775 79.1306 27.9547C79.3094 29.7689 79.3093 31.9293 79.3091 34.3432V53.302C79.3093 55.716 79.3094 57.8763 79.1306 59.6905C78.9357 61.6678 78.5014 63.6198 77.4039 65.5206C76.3065 67.4213 74.8332 68.7734 73.2183 69.9309C71.7365 70.9929 69.8654 72.073 67.7747 73.2799L51.3562 82.7591C49.2658 83.9662 47.3949 85.0465 45.7343 85.7987C43.9245 86.6186 42.0169 87.2185 39.822 87.2185C37.6272 87.2185 35.7196 86.6186 33.9098 85.7987C32.2492 85.0465 30.3783 83.9662 28.2878 82.7591L11.8689 73.2796C9.77837 72.0728 7.90743 70.9928 6.42578 69.9309C4.81086 68.7734 3.33753 67.4213 2.24012 65.5206C1.14271 63.6198 0.708415 61.6678 0.513505 59.6905C0.334675 57.8764 0.334815 55.716 0.33497 53.3021V34.3431C0.334815 31.9292 0.334675 29.7689 0.513505 27.9547C0.708415 25.9775 1.14271 24.0255 2.24012 22.1247C3.33753 20.2239 4.81086 18.8718 6.42578 17.7144C7.90747 16.6524 9.77846 15.5724 11.8691 14.3655C11.9309 14.3298 11.9929 14.294 12.0551 14.2581L28.1019 4.99352C28.1641 4.9576 28.2261 4.92178 28.288 4.88608C30.3784 3.67899 32.2492 2.59869 33.9098 1.84649C35.7196 1.02665 37.6272 0.426758 39.822 0.426758C42.0169 0.426758 43.9245 1.02665 45.7343 1.84649C47.3948 2.5987 49.2657 3.679 51.3561 4.88609L67.7751 14.3656Z" fill="#0D090F"/>
</svg>
