<svg width="41" height="37" viewBox="0 0 41 37" fill="none" xmlns="http://www.w3.org/2000/svg">
<path fill-rule="evenodd" clip-rule="evenodd" d="M38.0886 11.8707C39.1967 11.2166 40.4224 10.0528 40.4019 8.11198C40.3647 4.58449 36.8714 4.56896 35.702 6.10454C35.39 6.51419 35.1713 6.92512 35.0254 7.33301C31.4095 3.03038 26.3272 -0.062724 20.2633 0.000965733C14.1993 0.0646555 9.2173 3.24077 5.69501 7.5934C5.54071 7.20455 5.3181 6.81187 5.00908 6.42464C3.80982 4.91621 0.315352 5.00513 0.352556 8.53035C0.372799 10.4484 1.59314 11.5821 2.70353 12.2174C0.920057 15.7277 -0.0344565 19.5131 0.000950753 22.868C0.134387 35.5116 15.7138 37.0506 20.6515 36.9988C25.5891 36.9469 41.1326 35.081 40.9991 22.4374C40.9638 19.0915 39.9343 15.3361 38.084 11.8708L38.0886 11.8707ZM13.9773 20.8125C13.9773 23.1114 12.5171 24.975 10.7159 24.975C8.91471 24.975 7.45455 23.1114 7.45455 20.8125C7.45455 18.5136 8.91471 16.65 10.7159 16.65C12.5171 16.65 13.9773 18.5136 13.9773 20.8125ZM30.2841 24.975C32.0853 24.975 33.5455 23.1114 33.5455 20.8125C33.5455 18.5136 32.0853 16.65 30.2841 16.65C28.4829 16.65 27.0227 18.5136 27.0227 20.8125C27.0227 23.1114 28.4829 24.975 30.2841 24.975Z" fill="#0D090F"/>
</svg>
